<?xml version="1.0" encoding="utf-8"?>
<!-- Generator: Adobe Illustrator 28.3.0, SVG Export Plug-In . SVG Version: 6.00 Build 0)  -->
<svg version="1.1" id="Layer_1" xmlns="http://www.w3.org/2000/svg" xmlns:xlink="http://www.w3.org/1999/xlink" x="0px" y="0px"
	 viewBox="0 0 512 512" style="enable-background:new 0 0 512 512;" xml:space="preserve">
<style type="text/css">
	.st0{fill:#C75C5C;}
	.st1{opacity:0.2;}
	.st2{fill:#231F20;}
	.st3{fill:#E0E0D1;}
	.st4{fill:#4F5D73;}
</style>
<g id="Layer_1_00000096021875766379631390000018405043881247717510_">
	<g>
		<circle class="st0" cx="256" cy="256" r="256"/>
	</g>
	<g class="st1">
		<path class="st2" d="M416,400c0,17.6-14.4,32-32,32H128c-17.6,0-32-14.4-32-32V176c0-17.6,14.4-32,32-32h256c17.6,0,32,14.4,32,32
			V400z"/>
	</g>
	<g>
		<path class="st3" d="M416,384c0,17.6-14.4,32-32,32H128c-17.6,0-32-14.4-32-32V160c0-17.6,14.4-32,32-32h256c17.6,0,32,14.4,32,32
			V384z"/>
	</g>
	<g class="st1">
		<path class="st2" d="M416,368c0,17.6-14.4,32-32,32H128c-17.6,0-32-14.4-32-32V144c0-17.6,14.4-32,32-32h256c17.6,0,32,14.4,32,32
			V368z"/>
	</g>
	<g>
		<path class="st3" d="M416,352c0,17.6-14.4,32-32,32H128c-17.6,0-32-14.4-32-32V128c0-17.6,14.4-32,32-32h256c17.6,0,32,14.4,32,32
			V352z"/>
	</g>
	<g>
		<rect x="128" y="192" class="st4" width="96" height="96"/>
	</g>
	<g>
		<rect x="288" y="216" class="st4" width="96" height="8"/>
	</g>
	<g>
		<rect x="288" y="200" class="st4" width="96" height="8"/>
	</g>
	<g>
		<rect x="256" y="192" class="st4" width="24" height="32"/>
	</g>
	<g>
		<rect x="256" y="240" class="st4" width="128" height="8"/>
	</g>
	<g>
		<rect x="256" y="256" class="st4" width="128" height="8"/>
	</g>
	<g>
		<rect x="256" y="272" class="st4" width="128" height="8"/>
	</g>
	<g>
		<rect x="256" y="288" class="st4" width="128" height="8"/>
	</g>
	<g>
		<rect x="287.2" y="312" class="st4" width="96.8" height="8"/>
	</g>
	<g>
		<rect x="128" y="312" class="st4" width="96" height="8"/>
	</g>
	<g>
		<rect x="128" y="328" class="st4" width="96" height="8"/>
	</g>
	<g>
		<rect x="128" y="344" class="st4" width="96" height="8"/>
	</g>
	<g>
		<rect x="128" y="360" class="st4" width="96" height="8"/>
	</g>
	<g>
		<rect x="256" y="328" class="st4" width="128" height="8"/>
	</g>
	<g>
		<rect x="256" y="344" class="st4" width="128" height="8"/>
	</g>
	<g>
		<rect x="256" y="360" class="st4" width="128" height="8"/>
	</g>
	<g>
		<circle class="st3" cx="192" cy="224" r="16"/>
	</g>
	<g>
		<rect x="128" y="128" class="st4" width="256" height="32"/>
	</g>
	<g>
		<g>
			<path class="st3" d="M216,280v-19.2l-6.4-6.4c-4-4-10.4-4-14.4,0l-6.4,6.4l-15.2-15.2c-8-8-20.8-8-28,0l-9.6,9.6V280H216z"/>
		</g>
	</g>
</g>
<g id="Layer_2_00000002383265616351839120000017678378497430161829_">
</g>
</svg>
